#!OML:ASF H:\Terrain\Patient Classification 1\PLAYGROUND\JustinFriday\JustinFriday.ASF
:FULLY-SPECIFIED
:DEGREES
3339
root 26.0671 18.1503 43.6003 -0.0571765 -33.6218 3.77914
lowerback 10.8355 -1.39261 -8.31321
upperback 2.21312 -2.73362 1.90563
thorax -3.26016 -1.30079 7.07189
lowerneck 9.095 -19.3809 -13.5944
upperneck 3.03095 -27.8793 17.8998
head 3.89898 -14.202 6.21795
rclavicle -4.87022e-015 -1.15295e-014
rhumerus -24.4299 -36.7578 -60.4857
rradius 96.2835
rwrist -191.556
rhand -8.6764 26.1751
rfingers 7.12502
rthumb 17.2579 356.921
lclavicle -4.87022e-015 -1.15295e-014
lhumerus -23.5927 11.6065 68.7012
lradius 31.9901
lwrist -10.7647
lhand -12.7119 -1.82876
lfingers 7.12502
lthumb 13.3709 27.7222
rfemur -36.7981 -6.44738 28.0525
rtibia 43.4011
rfoot -11.1033 17.211
rtoes 0.41123
lfemur -1.03655 10.1811 -20.4997
ltibia 23.1712
lfoot -189.975 179.955
ltoes 0.669134
3340
root 26.0179 18.1188 43.6973 -0.402591 -34.2081 4.16247
lowerback 11.0676 -1.37575 -9.04052
upperback 2.22351 -2.8141 1.95342
thorax -3.32252 -1.33254 7.56149
lowerneck 9.30012 -19.3332 -13.4672
upperneck 2.52091 -27.7755 18.2099
head 3.72622 -14.1763 6.3504
rclavicle -7.42461e-014 2.34566e-014
rhumerus -24.6221 -37.4205 -58.9697
rradius 97.0173
rwrist -191.252
rhand -5.10931 27.3489
rfingers 7.12502
rthumb 20.6884 358.432
lclavicle -7.42461e-014 2.34566e-014
lhumerus -23.2435 11.83 68.0653
lradius 32.2121
lwrist -10.9087
lhand -13.5484 -3.35328
lfingers 7.12502
lthumb 12.5645 26.2489
rfemur -36.4293 -7.30256 28.7584
rtibia 40.8601
rfoot -10.3948 15.5565
rtoes 0.0937238
lfemur -0.348599 10.8906 -20.7374
ltibia 22.9651
lfoot -190.15 179.714
ltoes 0.160632
3341
root 25.985 18.1022 43.8016 -0.925047 -34.5695 5.3847
lowerback 11.0948 -1.35636 -10.0333
upperback 2.12031 -2.91715 1.78152
thorax -3.38336 -1.36731 7.96238
lowerneck 9.51213 -19.451 -13.6189
upperneck 1.98322 -27.9182 18.5337
head 3.6239 -14.2741 6.47895
rclavicle 7.95139e-015 3.10104e-014
rhumerus -24.7377 -38.3014 -57.1179
rradius 97.5278
rwrist -190.672
rhand -2.13467 28.1249
rfingers 7.12502
rthumb 23.5442 359.546
lclavicle 7.95139e-015 3.10104e-014
lhumerus -22.7651 11.8222 67.8328
lradius 32.3777
lwrist -10.4828
lhand -13.9535 -4.3298
lfingers 7.12502
lthumb 12.174 25.296
rfemur -36.449 -8.56201 28.7651
rtibia 38.2099
rfoot -8.35777 14.4017
rtoes 1.67994
lfemur -0.11111 11.3666 -21.8706
ltibia 22.9262
lfoot -190.416 179.59
ltoes -0.016063
3342
root 25.9481 18.0678 43.9166 -1.39788 -34.7188 6.33234
lowerback 11.158 -1.54401 -10.7772
upperback 2.08718 -3.27219 1.53832
thorax -3.35016 -1.53785 8.17043
lowerneck 9.61171 -19.5839 -13.509
upperneck 1.49221 -28.0581 18.8845
head 3.5219 -14.3654 6.57628
rclavicle 3.62782e-014 2.54444e-014
rhumerus -24.8457 -39.1598 -55.7509
rradius 98.0654
rwrist -189.435
rhand -1.53158 27.275
rfingers 7.12502
rthumb 24.1226 358.772
lclavicle 3.62782e-014 2.54444e-014
lhumerus -22.4065 11.5153 67.3892
lradius 32.5937
lwrist -9.20232
lhand -13.6639 -4.95582
lfingers 7.12502
lthumb 12.4532 24.6532
rfemur -36.942 -11.303 29.9649
rtibia 35.3531
rfoot -8.51847 12.8903
rtoes -9.27996
lfemur 0.227005 11.623 -22.7415
ltibia 23.0067
lfoot -190.882 179.493
ltoes 1.44383
3343
root 25.9085 18.0152 44.0421 -1.74772 -35.0805 6.97836
lowerback 11.1264 -1.61251 -11.2459
upperback 2.06558 -3.42109 1.41426
thorax -3.30223 -1.60994 8.31923
lowerneck 10.0237 -19.5358 -13.4003
upperneck 0.723277 -27.9287 19.2409
head 3.2467 -14.3493 6.76417
rclavicle -2.89232e-014 3.97569e-016
rhumerus -25.3322 -40.1872 -53.8725
rradius 98.6133
rwrist -187.415
rhand -3.01311 25.4229
rfingers 7.12502
rthumb 22.7014 356.738
lclavicle -2.89232e-014 3.97569e-016
lhumerus -22.1189 10.5874 67.2824
lradius 33.0268
lwrist -6.86312
lhand -13.4597 -4.9372
lfingers 7.12502
lthumb 12.6501 24.6597
rfemur -37.862 -16.1577 33.2816
rtibia 32.1716
rfoot -12.3176 10.1159
rtoes -33.8688
lfemur 0.479641 11.8549 -23.3643
ltibia 23.5022
lfoot -191.685 179.514
ltoes 2.24677
3344
root 25.8626 17.9542 44.1692 -1.77472 -35.6058 7.06182
lowerback 11.0046 -1.91569 -11.5033
upperback 2.02733 -3.84395 1.32531
thorax -3.16956 -1.82494 8.40848
lowerneck 9.9078 -20.1829 -13.1753
upperneck 0.917713 -28.7436 18.4366
head 3.29849 -14.727 6.39711
rclavicle -4.77083e-014 -6.75868e-015
rhumerus -25.1466 -40.0075 -53.1979
rradius 99.521
rwrist -186.557
rhand -1.59028 30.5467
rfingers 7.12502
rthumb 24.0663 362.036
lclavicle -4.77083e-014 -6.75868e-015
lhumerus -22.3316 10.102 66.4665
lradius 33.7801
lwrist -3.89239
lhand -15.6141 -4.77376
lfingers 7.12502
lthumb 10.5724 24.9403
rfemur -38.699 -20.5399 37.1211
rtibia 29.2503
rfoot -15.1027 7.51759
rtoes -42.7217
lfemur 0.845673 11.8695 -23.502
ltibia 23.8232
lfoot -192.317 179.77
ltoes 1.79279
3345
root 25.8139 17.8701 44.3037 -1.63287 -36.0581 6.84023
lowerback 10.8671 -2.08643 -11.36
upperback 2.02331 -4.03551 1.36167
thorax -3.06174 -1.92845 8.37657
lowerneck 10.1589 -20.3381 -13.2608
upperneck 0.59932 -28.9678 18.7464
head 3.26025 -14.8639 6.49911
rclavicle -6.61953e-014 -9.14409e-015
rhumerus -25.344 -40.8225 -51.4506
rradius 99.5467
rwrist -184.619
rhand -3.41458 28.0582
rfingers 7.12502
rthumb 22.316 359.327
lclavicle -6.61953e-014 -9.14409e-015
lhumerus -22.2319 9.59015 66.0458
lradius 34.4973
lwrist -0.69107
lhand -15.8801 -4.78086
lfingers 7.12502
lthumb 10.3159 24.9461
rfemur -40.7496 -25.5866 42.3752
rtibia 26.9617
rfoot -18.0676 5.81911
rtoes -39.1001
lfemur 1.38281 11.896 -23.3621
ltibia 23.9042
lfoot -192.895 180.02
ltoes 1.08533
3346
root 25.7644 17.8899 44.4109 -1.68439 -36.3567 7.13012
lowerback 10.6688 -2.23115 -11.4973
upperback 1.9876 -4.22118 1.33691
thorax -2.93969 -2.02616 8.43338
lowerneck 10.5712 -20.0937 -13.2885
upperneck -0.14562 -28.6239 19.5127
head 3.04294 -14.7506 6.83644
rclavicle -7.14134e-014 -4.77083e-015
rhumerus -25.4328 -41.3995 -50.074
rradius 99.4516
rwrist -185.12
rhand 0.149083 26.7859
rfingers 7.12502
rthumb 25.7332 358.506
lclavicle -7.14134e-014 -4.77083e-015
lhumerus -22.0993 8.60642 65.9748
lradius 35.1333
lwrist 1.94631
lhand -17.371 -4.68461
lfingers 7.12502
lthumb 8.87739 25.1086
rfemur -40.0987 -26.0948 42.3685
rtibia 25.5541
rfoot -14.3272 6.35644
rtoes -36.1584
lfemur 1.91312 12.2531 -23.592
ltibia 23.482
lfoot -193.079 179.998
ltoes -0.103784
3347
root 25.7121 17.9209 44.5188 -1.76075 -36.6696 7.5188
lowerback 10.4399 -2.38027 -11.7129
upperback 1.94906 -4.41719 1.30742
thorax -2.79471 -2.13007 8.52685
lowerneck 10.9153 -19.9089 -13.214
upperneck -0.941357 -28.3098 20.0481
head 2.77478 -14.6481 7.09611
rclavicle -2.44505e-014 -3.97569e-016
rhumerus -25.7318 -41.7567 -47.8902
rradius 99.3875
rwrist -186.244
rhand 3.97229 27.9437
rfingers 7.12502
rthumb 29.3892 360.248
lclavicle -2.44505e-014 -3.97569e-016
lhumerus -22.0057 7.39084 66.0104
lradius 35.6567
lwrist 3.53372
lhand -20.6421 -4.45227
lfingers 7.12502
lthumb 5.71992 25.4505
rfemur -39.8735 -26.6844 42.3975
rtibia 24.9249
rfoot -10.1396 5.9303
rtoes -35.275
lfemur 2.5999 12.5034 -23.9126
ltibia 22.6177
lfoot -192.857 180.027
ltoes -0.96873
3348
root 25.6548 17.9566 44.6266 -1.53105 -37.2109 7.43683
lowerback 10.0913 -2.4374 -11.5201
upperback 1.90741 -4.42815 1.35721
thorax -2.65422 -2.14424 8.44783
lowerneck 11.3773 -19.9387 -13.3488
upperneck -1.6984 -28.3269 20.6068
head 2.5879 -14.7154 7.34698
rclavicle -4.09496e-014 1.03368e-014
rhumerus -25.324 -42.856 -46.4711
rradius 99.3953
rwrist -184.023
rhand 1.90609 31.2915
rfingers 7.12502
rthumb 27.4148 363.266
lclavicle -4.09496e-014 1.03368e-014
lhumerus -21.8513 6.23323 65.974
lradius 36.2462
lwrist 5.29694
lhand -21.6311 -4.35833
lfingers 7.12502
lthumb 4.76499 25.5681
rfemur -39.9737 -27.0404 42.813
rtibia 25.2249
rfoot -6.56607 4.20264
rtoes -32.8125
lfemur 3.58794 12.6169 -23.8538
ltibia 21.1238
lfoot -192.22 180.276
ltoes -2.46869
3349
root 25.5955 17.9823 44.7375 -1.09151 -37.8029 7.06818
lowerback 9.61407 -2.45862 -10.9751
upperback 1.90158 -4.34158 1.35825
thorax -2.45751 -2.11656 8.09718
lowerneck 11.7182 -20.0902 -13.2178
upperneck -2.3119 -28.4763 21.0223
head 2.42644 -14.8381 7.49778
rclavicle 8.71671e-014 -3.97569e-016
rhumerus -25.8611 -43.913 -44.557
rradius 99.3046
rwrist -183.35
rhand 2.21803 30.7219
rfingers 7.12502
rthumb 27.7131 362.744
lclavicle 8.71671e-014 -3.97569e-016
lhumerus -21.6236 5.2621 65.6528
lradius 36.9502
lwrist 6.78888
lhand -21.9168 -4.42039
lfingers 7.12502
lthumb 4.48915 25.512
rfemur -39.9506 -27.0076 43.2262
rtibia 25.4897
rfoot -4.06226 2.00512
rtoes -27.3199
lfemur 4.43784 12.8364 -23.5258
ltibia 19.8656
lfoot -191.706 180.382
ltoes -1.78712
3350
root 25.5329 18.0089 44.8515 -0.668312 -38.2894 6.45431
lowerback 9.33638 -2.49078 -10.2596
upperback 1.95465 -4.27737 1.41506
thorax -2.31147 -2.09945 7.72469
lowerneck 11.7824 -20.4566 -13.1825
upperneck -2.59454 -28.9472 21.2279
head 2.44083 -15.0887 7.50417
rclavicle 3.56818e-014 -7.95139e-015
rhumerus -26.4882 -44.9818 -42.5037
rradius 99.1493
rwrist -182.711
rhand 2.10323 30.1023
rfingers 7.12502
rthumb 27.6033 362.107
lclavicle 3.56818e-014 -7.95139e-015
lhumerus -21.308 5.07038 65.2597
lradius 37.4
lwrist 6.95684
lhand -22.1969 -4.73174
lfingers 7.12502
lthumb 4.2186 25.2062
rfemur -39.6396 -27.0302 43.6977
rtibia 25.6258
rfoot -2.10962 -0.622369
rtoes -16.4923
lfemur 5.26157 12.9715 -22.9439
ltibia 19.0409
lfoot -191.353 180.463
ltoes -3.46915
